<?xml version="1.0" encoding="utf-8"?>
<svg version="1.1" xmlns:xlink="http://www.w3.org/1999/xlink" width="7px" height="15px" xmlns="http://www.w3.org/2000/svg">
  <g transform="matrix(1 0 0 1 -119 -404 )">
    <path d="M 6.7921875 12.475142045454545  C 6.9307291666666675 12.610085227272728  7 12.769886363636363  7 12.954545454545455  L 7 14.318181818181818  C 7 14.502840909090908  6.9307291666666675 14.662642045454545  6.7921875 14.797585227272727  C 6.653645833333334 14.93252840909091  6.489583333333334 15  6.3 15  L 0.7000000000000001 15  C 0.5104166666666667 15  0.3463541666666667 14.93252840909091  0.20781249999999998 14.797585227272727  C 0.06927083333333334 14.662642045454545  0 14.502840909090908  0 14.318181818181818  L 0 12.954545454545455  C 0 12.769886363636363  0.06927083333333334 12.610085227272728  0.20781249999999998 12.475142045454545  C 0.3463541666666667 12.340198863636363  0.5104166666666667 12.272727272727272  0.7000000000000001 12.272727272727272  L 1.4000000000000001 12.272727272727272  L 1.4000000000000001 8.181818181818182  L 0.7000000000000001 8.181818181818182  C 0.5104166666666667 8.181818181818182  0.3463541666666667 8.114346590909092  0.20781249999999998 7.979403409090909  C 0.06927083333333334 7.844460227272727  0 7.68465909090909  0 7.5  L 0 6.136363636363636  C 0 5.951704545454543  0.06927083333333334 5.791903409090907  0.20781249999999998 5.656960227272727  C 0.3463541666666667 5.522017045454544  0.5104166666666667 5.454545454545455  0.7000000000000001 5.454545454545455  L 4.8999999999999995 5.454545454545455  C 5.089583333333334 5.454545454545455  5.253645833333334 5.522017045454544  5.3921874999999995 5.656960227272727  C 5.530729166666667 5.791903409090907  5.6000000000000005 5.951704545454543  5.6000000000000005 6.136363636363636  L 5.6000000000000005 12.272727272727272  L 6.3 12.272727272727272  C 6.489583333333334 12.272727272727272  6.653645833333334 12.340198863636363  6.7921875 12.475142045454545  Z M 5.3921874999999995 0.20241477272727348  C 5.530729166666667 0.3373579545454525  5.6000000000000005 0.49715909090909005  5.6000000000000005 0.6818181818181812  L 5.6000000000000005 2.7272727272727266  C 5.6000000000000005 2.9119318181818175  5.530729166666667 3.0717329545454537  5.3921874999999995 3.206676136363636  C 5.253645833333334 3.3416193181818166  5.089583333333334 3.409090909090909  4.8999999999999995 3.409090909090909  L 2.1 3.409090909090909  C 1.9104166666666669 3.409090909090909  1.7463541666666669 3.3416193181818166  1.6078124999999999 3.206676136363636  C 1.4692708333333333 3.0717329545454537  1.4000000000000001 2.9119318181818175  1.4000000000000001 2.7272727272727266  L 1.4000000000000001 0.6818181818181812  C 1.4000000000000001 0.49715909090909005  1.4692708333333333 0.3373579545454525  1.6078124999999999 0.20241477272727348  C 1.7463541666666669 0.0674715909090895  1.9104166666666669 0  2.1 0  L 4.8999999999999995 0  C 5.089583333333334 0  5.253645833333334 0.0674715909090895  5.3921874999999995 0.20241477272727348  Z " fill-rule="nonzero" fill="#797979" stroke="none" transform="matrix(1 0 0 1 119 404 )" />
  </g>
</svg>